grf
version=1
nRows=8
nColumns=73
inDegrees=yes
endheader
time	ground_force_1_vx	ground_force_1_vy	ground_force_1_vz	ground_force_1_px	ground_force_1_py	ground_force_1_pz	ground_moment_1_mx	ground_moment_1_my	ground_moment_1_mz	ground_force_2_vx	ground_force_2_vy	ground_force_2_vz	ground_force_2_px	ground_force_2_py	ground_force_2_pz	ground_moment_2_mx	ground_moment_2_my	ground_moment_2_mz	ground_force_3_vx	ground_force_3_vy	ground_force_3_vz	ground_force_3_px	ground_force_3_py	ground_force_3_pz	ground_moment_3_mx	ground_moment_3_my	ground_moment_3_mz	ground_force_4_vx	ground_force_4_vy	ground_force_4_vz	ground_force_4_px	ground_force_4_py	ground_force_4_pz	ground_moment_4_mx	ground_moment_4_my	ground_moment_4_mz	ground_force_5_vx	ground_force_5_vy	ground_force_5_vz	ground_force_5_px	ground_force_5_py	ground_force_5_pz	ground_moment_5_mx	ground_moment_5_my	ground_moment_5_mz	ground_force_6_vx	ground_force_6_vy	ground_force_6_vz	ground_force_6_px	ground_force_6_py	ground_force_6_pz	ground_moment_6_mx	ground_moment_6_my	ground_moment_6_mz	ground_force_7_vx	ground_force_7_vy	ground_force_7_vz	ground_force_7_px	ground_force_7_py	ground_force_7_pz	ground_moment_7_mx	ground_moment_7_my	ground_moment_7_mz	ground_force_8_vx	ground_force_8_vy	ground_force_8_vz	ground_force_8_px	ground_force_8_py	ground_force_8_pz	ground_moment_8_mx	ground_moment_8_my	ground_moment_8_mz
3.941000	0.000000	0.000000	0.000000	0.000000	0.000000	0.000000	0.000000	0.000000	0.000000	-66.491656	507.520620	-20.970297	0.588089	0.000000	0.423924	-0.000000	1.004939	-0.000000	-66.346912	507.481660	-21.313885	0.591750	0.000000	0.427042	-0.000000	0.886870	-0.000000	0.000000	0.000000	0.000000	0.000000	0.000000	0.000000	0.000000	0.000000	0.000000	-67.817457	505.508562	-21.830913	0.591396	0.000000	0.423202	-0.000000	0.982924	-0.000000	0.000000	0.000000	0.000000	0.000000	0.000000	0.000000	0.000000	0.000000	0.000000	0.000000	0.000000	0.000000	0.000000	0.000000	0.000000	0.000000	0.000000	0.000000	-67.460212	502.596079	-22.175611	0.589144	0.000000	0.423706	-0.000000	1.098409	0.000000
3.942000	0.000000	0.000000	0.000000	0.000000	0.000000	0.000000	0.000000	0.000000	0.000000	-66.139625	507.061763	-20.759101	0.587112	0.000000	0.424021	-0.000000	0.980587	-0.000000	-65.968312	507.017191	-21.120615	0.590805	0.000000	0.427125	-0.000000	0.853887	-0.000000	0.000000	0.000000	0.000000	0.000000	0.000000	0.000000	0.000000	0.000000	0.000000	-67.416828	505.039937	-21.657342	0.590482	0.000000	0.423293	-0.000000	0.947096	-0.000000	0.000000	0.000000	0.000000	0.000000	0.000000	0.000000	0.000000	0.000000	0.000000	0.000000	0.000000	0.000000	0.000000	0.000000	0.000000	0.000000	0.000000	0.000000	-67.039406	502.095331	-22.018097	0.588224	0.000000	0.423781	-0.000000	1.058741	0.000000
3.943000	0.000000	0.000000	0.000000	0.000000	0.000000	0.000000	0.000000	0.000000	0.000000	-65.789831	506.624344	-20.543283	0.586112	0.000000	0.424117	-0.000000	0.958366	-0.000000	-65.593310	506.562476	-20.924504	0.589851	0.000000	0.427207	-0.000000	0.821619	-0.000000	0.000000	0.000000	0.000000	0.000000	0.000000	0.000000	0.000000	0.000000	0.000000	-67.025593	504.595255	-21.472117	0.589566	0.000000	0.423384	-0.000000	0.912668	-0.000000	0.000000	0.000000	0.000000	0.000000	0.000000	0.000000	0.000000	0.000000	0.000000	0.000000	0.000000	0.000000	0.000000	0.000000	0.000000	0.000000	0.000000	0.000000	-66.625673	501.629934	-21.845164	0.587283	0.000000	0.423856	-0.000000	1.022824	0.000000
3.944000	0.000000	0.000000	0.000000	0.000000	0.000000	0.000000	0.000000	0.000000	0.000000	-65.441589	506.203450	-20.328171	0.585088	0.000000	0.424211	-0.000000	0.938010	-0.000000	-65.219839	506.112980	-20.730002	0.588889	0.000000	0.427289	-0.000000	0.790158	-0.000000	0.000000	0.000000	0.000000	0.000000	0.000000	0.000000	0.000000	0.000000	0.000000	-66.641953	504.169576	-21.277975	0.588643	0.000000	0.423474	-0.000000	0.879336	-0.000000	0.000000	0.000000	0.000000	0.000000	0.000000	0.000000	0.000000	0.000000	0.000000	0.000000	0.000000	0.000000	0.000000	0.000000	0.000000	0.000000	0.000000	0.000000	-66.216925	501.194757	-21.659679	0.586320	0.000000	0.423929	-0.000000	0.990198	0.000000
3.945000	0.000000	0.000000	0.000000	0.000000	0.000000	0.000000	0.000000	0.000000	0.000000	-65.094498	505.794142	-20.118889	0.584043	0.000000	0.424305	-0.000000	0.919610	-0.000000	-64.845964	505.664718	-20.541266	0.587918	0.000000	0.427370	-0.000000	0.760219	-0.000000	0.000000	0.000000	0.000000	0.000000	0.000000	0.000000	0.000000	0.000000	0.000000	-66.263667	503.757126	-21.078652	0.587714	0.000000	0.423563	-0.000000	0.846603	-0.000000	0.000000	0.000000	0.000000	0.000000	0.000000	0.000000	0.000000	0.000000	0.000000	0.000000	0.000000	0.000000	0.000000	0.000000	0.000000	0.000000	0.000000	0.000000	-65.811961	500.784112	-21.465245	0.585337	0.000000	0.424002	-0.000000	0.960483	-0.000000
3.946000	0.000000	0.000000	0.000000	0.000000	0.000000	0.000000	0.000000	0.000000	0.000000	-64.747539	505.391214	-19.920059	0.582978	0.000000	0.424397	-0.000000	0.903061	-0.000000	-64.469863	505.214267	-20.361484	0.586938	0.000000	0.427451	-0.000000	0.732835	-0.000000	0.000000	0.000000	0.000000	0.000000	0.000000	0.000000	0.000000	0.000000	0.000000	-65.888482	503.352226	-20.878669	0.586776	0.000000	0.423652	-0.000000	0.814309	-0.000000	0.000000	0.000000	0.000000	0.000000	0.000000	0.000000	0.000000	0.000000	0.000000	0.000000	0.000000	0.000000	0.000000	0.000000	0.000000	0.000000	0.000000	0.000000	-65.410631	500.392476	-21.266171	0.584335	0.000000	0.424074	-0.000000	0.933708	-0.000000
3.947000	0.000000	0.000000	0.000000	0.000000	0.000000	0.000000	0.000000	0.000000	0.000000	-64.398892	504.989376	-19.735532	0.581897	0.000000	0.424489	-0.000000	0.887698	-0.000000	-64.090039	504.758796	-20.192583	0.585950	0.000000	0.427533	-0.000000	0.708802	-0.000000	0.000000	0.000000	0.000000	0.000000	0.000000	0.000000	0.000000	0.000000	0.000000	-65.514277	502.950026	-20.682582	0.585828	0.000000	0.423739	-0.000000	0.782962	-0.000000	0.000000	0.000000	0.000000	0.000000	0.000000	0.000000	0.000000	0.000000	0.000000	0.000000	0.000000	0.000000	0.000000	0.000000	0.000000	0.000000	0.000000	0.000000	-65.013168	500.014793	-21.067126	0.583316	0.000000	0.424145	-0.000000	0.910279	-0.000000
3.948000	0.000000	0.000000	0.000000	0.000000	0.000000	0.000000	0.000000	0.000000	0.000000	-64.046501	504.583929	-19.568165	0.580804	0.000000	0.424578	-0.000000	0.872425	-0.000000	-63.705708	504.296247	-20.035446	0.584954	0.000000	0.427613	-0.000000	0.688314	-0.000000	0.000000	0.000000	0.000000	0.000000	0.000000	0.000000	0.000000	0.000000	0.000000	-65.139030	502.546678	-20.494143	0.584872	0.000000	0.423826	-0.000000	0.753586	-0.000000	0.000000	0.000000	0.000000	0.000000	0.000000	0.000000	0.000000	0.000000	0.000000	0.000000	0.000000	0.000000	0.000000	0.000000	0.000000	0.000000	0.000000	0.000000	-64.619308	499.646364	-20.872625	0.582283	0.000000	0.424214	-0.000000	0.890582	-0.000000
